<svg width="56" height="20" viewBox="0 0 56 20" fill="currentColor"
  xmlns="http://www.w3.org/2000/svg">
  <path
    d="M41.2461 15.286L46.3302 7.86766L41.5452 0.75212H45.9066L48.648 5.29395L51.4143 0.75212H55.6262L50.891 7.61533L56 15.286H51.7134L48.5732 10.2395L45.4081 15.286H41.2461Z"
    fill="currentColor" />
  <path
    d="M27.1159 15.2862V0.752324H30.6797L30.8293 2.72045C31.9258 1.18128 33.2716 0.5 35.1906 0.5C38.1314 0.5 40.0255 2.24104 40.0255 5.49602V15.2862H36.1626V6.12683C36.1626 4.71381 35.3152 3.93161 33.8199 3.93161C32.2997 3.93161 31.1034 4.99137 31.0037 6.70717V15.2862H27.1159Z"
    fill="currentColor" />
  <path
    d="M17.0459 15.2862V0.752352H20.5848L20.7593 3.1242C21.5568 1.38316 22.6285 0.575726 24.1736 0.575726C24.6471 0.575726 25.0957 0.651422 25.3948 0.752352V4.38582H25.2453C24.996 4.28489 24.5724 4.23442 24.0989 4.23442C22.3543 4.23442 21.2079 5.16802 20.9338 6.75766V15.2862H17.0459Z"
    fill="currentColor" />
  <path
    d="M0 7.94356C0 3.40173 2.34267 0.5 6.08098 0.5C8.0249 0.5 9.7196 1.3579 10.4673 2.87185L10.6916 0.752324H14.2554V19.5H10.3925V13.3181C9.54515 14.8068 8.07475 15.5385 6.18067 15.5385C2.41744 15.5385 0 12.5863 0 7.94356ZM3.96261 7.96879C3.96261 10.7948 5.0841 12.334 7.15263 12.334C9.22116 12.334 10.3925 10.921 10.3925 8.44821V7.53984C10.3925 5.0923 9.19624 3.70452 7.15263 3.70452C5.0841 3.70452 3.96261 5.21846 3.96261 7.96879Z"
    fill="currentColor" />
</svg>