<svg width="25" height="18" viewBox="0 0 25 18" fill="none" xmlns="http://www.w3.org/2000/svg">
<path d="M21.1719 1.50868C19.5539 0.803439 17.824 0.291618 16.0173 0C15.7966 0.374938 15.5344 0.874855 15.3554 1.27657C13.4336 1.00876 11.5277 1.00876 9.64112 1.27657C9.46205 0.877831 9.19664 0.374938 8.97281 0C7.16292 0.291618 5.42978 0.806414 3.81176 1.51165C0.550131 6.10018 -0.335625 10.5756 0.105654 14.9856C2.27048 16.4883 4.36815 17.4019 6.43065 18C6.93908 17.3483 7.39316 16.655 7.78647 15.923C7.04141 15.6581 6.32833 15.3338 5.65362 14.9559C5.83269 14.8339 6.00856 14.7029 6.17804 14.572C10.2902 16.3634 14.7574 16.3634 18.8216 14.572C18.9911 14.7059 19.167 14.8339 19.3461 14.9559C18.6714 15.3338 17.9551 15.6611 17.21 15.923C17.6001 16.652 18.0542 17.3453 18.5658 18C20.6283 17.4019 22.7292 16.4883 24.894 14.9826C25.4121 9.87039 24.0083 5.4366 21.1783 1.5057L21.1719 1.50868ZM8.34606 12.2718C7.11176 12.2718 6.0981 11.2005 6.0981 9.8942C6.0981 8.58787 7.08938 7.51364 8.34606 7.51364C9.60275 7.51364 10.6132 8.58489 10.594 9.8942C10.594 11.2005 9.60275 12.2718 8.34606 12.2718ZM16.6504 12.2718C15.4161 12.2718 14.4025 11.2005 14.4025 9.8942C14.4025 8.58787 15.3937 7.51364 16.6504 7.51364C17.9071 7.51364 18.9176 8.58489 18.8984 9.8942C18.8984 11.2005 17.9071 12.2718 16.6504 12.2718Z" fill="white"/>
</svg>
