<svg width="20" height="20" viewBox="0 0 20 20" fill="none" xmlns="http://www.w3.org/2000/svg">
<path d="M19.9286 5.08171C19.9193 4.30466 19.7827 3.53685 19.5126 2.80913C19.0998 1.7453 18.2586 0.900401 17.1939 0.490287C16.4644 0.2251 15.7008 0.0801727 14.9278 0.070922H14.9247C13.6427 0.0123343 13.2547 0 10.0016 0C6.74841 0 6.35729 0.0123343 5.07838 0.070922C4.30545 0.0801727 3.53252 0.222017 2.80615 0.490287C1.74453 0.900401 0.900202 1.74221 0.487351 2.80913C0.21729 3.53685 0.0776036 4.29849 0.0713953 5.07246C0.0124166 6.35523 0 6.74067 0 9.99383C0 13.247 0.0124166 13.6386 0.0713953 14.9183C0.0776036 15.6953 0.21729 16.4632 0.487351 17.1909C0.900202 18.2547 1.74142 19.0996 2.80615 19.5097C3.53252 19.778 4.29924 19.9198 5.07217 19.9291C6.35418 19.9877 6.7422 20 9.99534 20C13.2485 20 13.6396 19.9877 14.9185 19.9291C15.6946 19.9198 16.4644 19.778 17.1939 19.5097C18.2555 19.0996 19.0998 18.2578 19.5126 17.1909C19.7827 16.4632 19.9193 15.7015 19.9286 14.9275C19.9876 13.6448 20 13.2562 20 10.0031C20 6.74992 19.9876 6.36139 19.9286 5.08171ZM10.0016 16.2658C6.54043 16.2658 3.73429 13.4628 3.73429 10C3.73429 6.53716 6.54043 3.73728 10.0016 3.73728C13.4627 3.73728 16.2688 6.54024 16.2688 10C16.2688 13.4598 13.4627 16.2658 10.0016 16.2658ZM16.5109 4.95529C15.7039 4.95529 15.0489 4.29849 15.0489 3.4906C15.0489 2.6827 15.7039 2.02899 16.5109 2.02899C17.318 2.02899 17.9761 2.68578 17.9761 3.4906C17.9761 4.29541 17.318 4.95529 16.5109 4.95529Z" fill="white"/>
<path d="M14.068 9.99692C14.068 12.2448 12.2458 14.0641 10.0016 14.0641C7.75726 14.0641 5.93512 12.2448 5.93512 9.99692C5.93512 7.749 7.75726 5.93278 10.0016 5.93278C12.2458 5.93278 14.068 7.75208 14.068 9.99692Z" fill="white"/>
</svg>
