<svg width="23" height="16" viewBox="0 0 23 16" fill="none" xmlns="http://www.w3.org/2000/svg">
<path d="M22.5191 2.50132C22.25 1.51492 21.4772 0.743331 20.4867 0.48048C18.692 -8.76012e-07 11.5014 0 11.5014 0C11.5014 0 4.31089 -8.76012e-07 2.51612 0.48048C1.52284 0.746157 0.749969 1.51775 0.483759 2.50132C0 4.28193 0 8.00141 0 8.00141C0 8.00141 0 11.7181 0.483759 13.5015C0.749969 14.4879 1.5257 15.2538 2.51612 15.5223C4.30803 16 11.5014 16 11.5014 16C11.5014 16 18.692 16 20.4867 15.5223C21.4772 15.2538 22.2529 14.4879 22.5191 13.5015C23 11.7209 23 8.00141 23 8.00141C23 8.00141 23 4.28193 22.5191 2.50132ZM9.20286 11.4298V4.57587L15.1854 8.00141L9.20286 11.4298Z" fill="white"/>
</svg>
